<svg width="77" height="47" viewBox="0 0 77 47" fill="none" xmlns="http://www.w3.org/2000/svg">
<path d="M1.4 19L1.4 5H4.66L12.38 14.32H10.84V5H14.72L14.72 19H11.46L3.74 9.68H5.28V19H1.4ZM21.1533 10.42H27.6533V13.38H21.1533V10.42ZM21.4333 15.94H28.7533V19H17.5133V5L28.4933 5V8.06H21.4333V15.94ZM37.4108 19.28C35.3441 19.28 33.7308 18.7133 32.5708 17.58C31.4108 16.4467 30.8308 14.84 30.8308 12.76V5H34.7908V12.64C34.7908 13.84 35.0241 14.7 35.4908 15.22C35.9708 15.74 36.6241 16 37.4508 16C38.2774 16 38.9241 15.74 39.3908 15.22C39.8574 14.7 40.0908 13.84 40.0908 12.64V5H43.9908V12.76C43.9908 14.84 43.4108 16.4467 42.2508 17.58C41.0908 18.7133 39.4774 19.28 37.4108 19.28ZM46.6734 19V5H53.0734C54.3534 5 55.4534 5.20667 56.3734 5.62C57.3068 6.03333 58.0268 6.63333 58.5334 7.42C59.0401 8.19333 59.2934 9.11333 59.2934 10.18C59.2934 11.2333 59.0401 12.1467 58.5334 12.92C58.0268 13.68 57.3068 14.2667 56.3734 14.68C55.4534 15.08 54.3534 15.28 53.0734 15.28H48.8734L50.6334 13.62V19H46.6734ZM55.3334 19L51.8534 13.9H56.0734L59.5734 19H55.3334ZM50.6334 14.04L48.8734 12.22H52.8334C53.6601 12.22 54.2734 12.04 54.6734 11.68C55.0868 11.32 55.2934 10.82 55.2934 10.18C55.2934 9.52667 55.0868 9.02 54.6734 8.66C54.2734 8.3 53.6601 8.12 52.8334 8.12H48.8734L50.6334 6.3V14.04ZM68.5381 19.28C67.4181 19.28 66.3848 19.1 65.4381 18.74C64.4915 18.38 63.6648 17.8733 62.9581 17.22C62.2648 16.5533 61.7248 15.78 61.3381 14.9C60.9515 14.02 60.7581 13.0533 60.7581 12C60.7581 10.9467 60.9515 9.98 61.3381 9.1C61.7248 8.22 62.2648 7.45333 62.9581 6.8C63.6648 6.13333 64.4915 5.62 65.4381 5.26C66.3848 4.9 67.4181 4.72 68.5381 4.72C69.6715 4.72 70.7048 4.9 71.6381 5.26C72.5848 5.62 73.4048 6.13333 74.0981 6.8C74.7915 7.45333 75.3315 8.22 75.7181 9.1C76.1181 9.98 76.3181 10.9467 76.3181 12C76.3181 13.0533 76.1181 14.0267 75.7181 14.92C75.3315 15.8 74.7915 16.5667 74.0981 17.22C73.4048 17.8733 72.5848 18.38 71.6381 18.74C70.7048 19.1 69.6715 19.28 68.5381 19.28ZM68.5381 16C69.0715 16 69.5648 15.9067 70.0181 15.72C70.4848 15.5333 70.8848 15.2667 71.2181 14.92C71.5648 14.56 71.8315 14.1333 72.0181 13.64C72.2181 13.1467 72.3181 12.6 72.3181 12C72.3181 11.3867 72.2181 10.84 72.0181 10.36C71.8315 9.86667 71.5648 9.44667 71.2181 9.1C70.8848 8.74 70.4848 8.46667 70.0181 8.28C69.5648 8.09333 69.0715 8 68.5381 8C68.0048 8 67.5048 8.09333 67.0381 8.28C66.5848 8.46667 66.1848 8.74 65.8381 9.1C65.5048 9.44667 65.2381 9.86667 65.0381 10.36C64.8515 10.84 64.7581 11.3867 64.7581 12C64.7581 12.6 64.8515 13.1467 65.0381 13.64C65.2381 14.1333 65.5048 14.56 65.8381 14.92C66.1848 15.2667 66.5848 15.5333 67.0381 15.72C67.5048 15.9067 68.0048 16 68.5381 16Z" fill="black"/>
<path d="M28.4 36V22H31.66L37.46 31.52H35.74L41.38 22H44.64L44.68 36H41.04L41 27.54H41.62L37.4 34.62H35.64L31.3 27.54H32.06V36H28.4ZM47.482 36V22H51.442V36H47.482ZM54.2594 36V22H60.8794C62.426 22 63.786 22.2867 64.9594 22.86C66.1327 23.4333 67.046 24.24 67.6994 25.28C68.366 26.32 68.6994 27.56 68.6994 29C68.6994 30.4267 68.366 31.6667 67.6994 32.72C67.046 33.76 66.1327 34.5667 64.9594 35.14C63.786 35.7133 62.426 36 60.8794 36H54.2594ZM58.2194 32.84H60.7194C61.5194 32.84 62.2127 32.6933 62.7994 32.4C63.3994 32.0933 63.866 31.6533 64.1994 31.08C64.5327 30.4933 64.6994 29.8 64.6994 29C64.6994 28.1867 64.5327 27.4933 64.1994 26.92C63.866 26.3467 63.3994 25.9133 62.7994 25.62C62.2127 25.3133 61.5194 25.16 60.7194 25.16H58.2194V32.84ZM70.7828 36V22H74.7428V36H70.7828Z" fill="black"/>
<g clip-path="url(#clip0_2_578)">
<mask id="mask0_2_578" style="mask-type:luminance" maskUnits="userSpaceOnUse" x="1" y="21" width="26" height="26">
<path d="M22.84 21H5.16C2.8625 21 1 22.8625 1 25.16V42.84C1 45.1375 2.8625 47 5.16 47H22.84C25.1375 47 27 45.1375 27 42.84V25.16C27 22.8625 25.1375 21 22.84 21Z" fill="white"/>
</mask>
<g mask="url(#mask0_2_578)">
<path d="M22.84 21H5.16C2.8625 21 1 22.8625 1 25.16V42.84C1 45.1375 2.8625 47 5.16 47H22.84C25.1375 47 27 45.1375 27 42.84V25.16C27 22.8625 25.1375 21 22.84 21Z" fill="black"/>
<path d="M-1.38517 44.5392L-7.48648 46.9432L4.53338 77.4497L10.6347 75.0457L-1.38517 44.5392Z" fill="white"/>
<path d="M5.73302 41.7346L-0.368286 44.1385L11.6516 74.6451L17.7529 72.2411L5.73302 41.7346Z" fill="white"/>
<path d="M12.8513 38.93L6.74997 41.3339L18.7698 71.8405L24.8711 69.4365L12.8513 38.93Z" fill="white"/>
<path d="M19.9694 36.1253L13.8681 38.5292L25.888 69.0358L31.9893 66.6318L19.9694 36.1253Z" fill="white"/>
<path d="M27.0876 33.3207L20.9863 35.7246L33.0062 66.2312L39.1075 63.8272L27.0876 33.3207Z" fill="white"/>
<path d="M-5.4527 46.1418L-10.5371 48.1451L-2.52386 68.4829L2.56055 66.4796L-5.4527 46.1418Z" fill="black"/>
<path d="M-5.4527 46.1418L-10.5371 48.1451L-2.52386 68.4829L2.56055 66.4796L-5.4527 46.1418Z" fill="black"/>
<path d="M-5.4527 46.1418L-10.5371 48.1451L-2.52386 68.4829L2.56055 66.4796L-5.4527 46.1418Z" fill="black"/>
<path d="M-5.4527 46.1418L-10.5371 48.1451L-2.52386 68.4829L2.56055 66.4796L-5.4527 46.1418Z" fill="black"/>
<path d="M1.66546 43.3372L-3.41895 45.3405L4.59431 65.6782L9.67872 63.6749L1.66546 43.3372Z" fill="black"/>
<path d="M1.66546 43.3372L-3.41895 45.3405L4.59431 65.6782L9.67872 63.6749L1.66546 43.3372Z" fill="black"/>
<path d="M1.66546 43.3372L-3.41895 45.3405L4.59431 65.6782L9.67872 63.6749L1.66546 43.3372Z" fill="black"/>
<path d="M1.66546 43.3372L-3.41895 45.3405L4.59431 65.6782L9.67872 63.6749L1.66546 43.3372Z" fill="black"/>
<path d="M15.9019 37.7279L10.8174 39.7312L18.8307 60.0689L23.9151 58.0656L15.9019 37.7279Z" fill="black"/>
<path d="M15.9019 37.7279L10.8174 39.7312L18.8307 60.0689L23.9151 58.0656L15.9019 37.7279Z" fill="black"/>
<path d="M15.9019 37.7279L10.8174 39.7312L18.8307 60.0689L23.9151 58.0656L15.9019 37.7279Z" fill="black"/>
<path d="M15.9019 37.7279L10.8174 39.7312L18.8307 60.0689L23.9151 58.0656L15.9019 37.7279Z" fill="black"/>
<path d="M23.0201 34.9233L17.9357 36.9266L25.9489 57.2643L31.0333 55.261L23.0201 34.9233Z" fill="black"/>
<path d="M23.0201 34.9233L17.9357 36.9266L25.9489 57.2643L31.0333 55.261L23.0201 34.9233Z" fill="black"/>
<path d="M23.0201 34.9233L17.9357 36.9266L25.9489 57.2643L31.0333 55.261L23.0201 34.9233Z" fill="black"/>
<path d="M23.0201 34.9233L17.9357 36.9266L25.9489 57.2643L31.0333 55.261L23.0201 34.9233Z" fill="black"/>
<path d="M30.1383 32.1187L25.0539 34.122L33.0671 54.4597L38.1515 52.4564L30.1383 32.1187Z" fill="black"/>
<path d="M30.1383 32.1187L25.0539 34.122L33.0671 54.4597L38.1515 52.4564L30.1383 32.1187Z" fill="black"/>
<path d="M30.1383 32.1187L25.0539 34.122L33.0671 54.4597L38.1515 52.4564L30.1383 32.1187Z" fill="black"/>
<path d="M30.1383 32.1187L25.0539 34.122L33.0671 54.4597L38.1515 52.4564L30.1383 32.1187Z" fill="black"/>
<path d="M-9.8838 11.3942L-15.9851 13.7982L-3.96525 44.3047L2.13606 41.9008L-9.8838 11.3942Z" fill="white"/>
<path d="M-2.76563 8.5896L-8.86694 10.9936L3.15292 41.5001L9.25423 39.0961L-2.76563 8.5896Z" fill="white"/>
<path d="M4.35259 5.78499L-1.74872 8.18896L10.2711 38.6955L16.3725 36.2915L4.35259 5.78499Z" fill="white"/>
<path d="M11.4708 2.98037L5.36951 5.38434L17.3894 35.8909L23.4907 33.4869L11.4708 2.98037Z" fill="white"/>
<path d="M18.589 0.175755L12.4877 2.57973L24.5076 33.0863L30.6089 30.6823L18.589 0.175755Z" fill="white"/>
<path d="M25.7072 -2.62887L19.6059 -0.224899L31.6257 30.2816L37.727 27.8777L25.7072 -2.62887Z" fill="white"/>
<path d="M-6.83316 10.1923L-11.9176 12.1956L-3.90432 32.5333L1.18009 30.53L-6.83316 10.1923Z" fill="black"/>
<path d="M-6.83316 10.1923L-11.9176 12.1956L-3.90432 32.5333L1.18009 30.53L-6.83316 10.1923Z" fill="black"/>
<path d="M-6.83316 10.1923L-11.9176 12.1956L-3.90432 32.5333L1.18009 30.53L-6.83316 10.1923Z" fill="black"/>
<path d="M-6.83316 10.1923L-11.9176 12.1956L-3.90432 32.5333L1.18009 30.53L-6.83316 10.1923Z" fill="black"/>
<path d="M7.40323 4.58302L2.31882 6.58632L10.3321 26.924L15.4165 24.9207L7.40323 4.58302Z" fill="black"/>
<path d="M7.40323 4.58302L2.31882 6.58632L10.3321 26.924L15.4165 24.9207L7.40323 4.58302Z" fill="black"/>
<path d="M7.40323 4.58302L2.31882 6.58632L10.3321 26.924L15.4165 24.9207L7.40323 4.58302Z" fill="black"/>
<path d="M7.40323 4.58302L2.31882 6.58632L10.3321 26.924L15.4165 24.9207L7.40323 4.58302Z" fill="black"/>
<path d="M14.5214 1.7784L9.43701 3.78171L17.4503 24.1194L22.5347 22.1161L14.5214 1.7784Z" fill="black"/>
<path d="M14.5214 1.7784L9.43701 3.78171L17.4503 24.1194L22.5347 22.1161L14.5214 1.7784Z" fill="black"/>
<path d="M14.5214 1.7784L9.43701 3.78171L17.4503 24.1194L22.5347 22.1161L14.5214 1.7784Z" fill="black"/>
<path d="M14.5214 1.7784L9.43701 3.78171L17.4503 24.1194L22.5347 22.1161L14.5214 1.7784Z" fill="black"/>
<path d="M21.6396 -1.02622L16.5552 0.977081L24.5685 21.3148L29.6529 19.3115L21.6396 -1.02622Z" fill="black"/>
<path d="M21.6396 -1.02622L16.5552 0.977081L24.5685 21.3148L29.6529 19.3115L21.6396 -1.02622Z" fill="black"/>
<path d="M21.6396 -1.02622L16.5552 0.977081L24.5685 21.3148L29.6529 19.3115L21.6396 -1.02622Z" fill="black"/>
<path d="M21.6396 -1.02622L16.5552 0.977081L24.5685 21.3148L29.6529 19.3115L21.6396 -1.02622Z" fill="black"/>
<path d="M32.7513 -5.378L26.6499 -2.97403L38.6698 27.5325L44.7711 25.1285L32.7513 -5.378Z" fill="white"/>
</g>
<path d="M22.84 21.52H5.15999C3.14967 21.52 1.51999 23.1497 1.51999 25.16V42.84C1.51999 44.8503 3.14967 46.48 5.15999 46.48H22.84C24.8503 46.48 26.48 44.8503 26.48 42.84V25.16C26.48 23.1497 24.8503 21.52 22.84 21.52Z" stroke="black" stroke-width="2"/>
</g>
<rect x="28" y="38" width="47" height="9" rx="3" fill="black"/>
<defs>
<clipPath id="clip0_2_578">
<rect width="26" height="26" fill="white" transform="translate(1 21)"/>
</clipPath>
</defs>
</svg>
