<svg width="50" height="50" viewBox="0 0 50 50" fill="none" xmlns="http://www.w3.org/2000/svg">
<g clip-path="url(#clip0_2_4)">
<rect width="50" height="50" rx="8" fill="black"/>
<rect x="-16.3202" y="49.8907" width="12.6112" height="63.056" transform="rotate(-21.5049 -16.3202 49.8907)" fill="white"/>
<rect x="-2.63133" y="44.4972" width="12.6112" height="63.056" transform="rotate(-21.5049 -2.63133 44.4972)" fill="white"/>
<rect x="11.0576" y="39.1037" width="12.6112" height="63.056" transform="rotate(-21.5049 11.0576 39.1037)" fill="white"/>
<rect x="24.7464" y="33.7101" width="12.6112" height="63.056" transform="rotate(-21.5049 24.7464 33.7101)" fill="white"/>
<rect x="38.4352" y="28.3166" width="12.6112" height="63.056" transform="rotate(-21.5049 38.4352 28.3166)" fill="white"/>
<rect x="-22.1868" y="52.2022" width="10.5093" height="42.0374" transform="rotate(-21.5049 -22.1868 52.2022)" fill="black"/>
<rect x="-22.1868" y="52.2022" width="10.5093" height="42.0374" transform="rotate(-21.5049 -22.1868 52.2022)" fill="black"/>
<rect x="-22.1868" y="52.2022" width="10.5093" height="42.0374" transform="rotate(-21.5049 -22.1868 52.2022)" fill="black"/>
<rect x="-22.1868" y="52.2022" width="10.5093" height="42.0374" transform="rotate(-21.5049 -22.1868 52.2022)" fill="black"/>
<rect x="-8.498" y="46.8087" width="10.5093" height="42.0374" transform="rotate(-21.5049 -8.498 46.8087)" fill="black"/>
<rect x="-8.498" y="46.8087" width="10.5093" height="42.0374" transform="rotate(-21.5049 -8.498 46.8087)" fill="black"/>
<rect x="-8.498" y="46.8087" width="10.5093" height="42.0374" transform="rotate(-21.5049 -8.498 46.8087)" fill="black"/>
<rect x="-8.498" y="46.8087" width="10.5093" height="42.0374" transform="rotate(-21.5049 -8.498 46.8087)" fill="black"/>
<rect x="18.8797" y="36.0216" width="10.5093" height="42.0374" transform="rotate(-21.5049 18.8797 36.0216)" fill="black"/>
<rect x="18.8797" y="36.0216" width="10.5093" height="42.0374" transform="rotate(-21.5049 18.8797 36.0216)" fill="black"/>
<rect x="18.8797" y="36.0216" width="10.5093" height="42.0374" transform="rotate(-21.5049 18.8797 36.0216)" fill="black"/>
<rect x="18.8797" y="36.0216" width="10.5093" height="42.0374" transform="rotate(-21.5049 18.8797 36.0216)" fill="black"/>
<rect x="32.5686" y="30.6281" width="10.5093" height="42.0374" transform="rotate(-21.5049 32.5686 30.6281)" fill="black"/>
<rect x="32.5686" y="30.6281" width="10.5093" height="42.0374" transform="rotate(-21.5049 32.5686 30.6281)" fill="black"/>
<rect x="32.5686" y="30.6281" width="10.5093" height="42.0374" transform="rotate(-21.5049 32.5686 30.6281)" fill="black"/>
<rect x="32.5686" y="30.6281" width="10.5093" height="42.0374" transform="rotate(-21.5049 32.5686 30.6281)" fill="black"/>
<rect x="46.2574" y="25.2346" width="10.5093" height="42.0374" transform="rotate(-21.5049 46.2574 25.2346)" fill="black"/>
<rect x="46.2574" y="25.2346" width="10.5093" height="42.0374" transform="rotate(-21.5049 46.2574 25.2346)" fill="black"/>
<rect x="46.2574" y="25.2346" width="10.5093" height="42.0374" transform="rotate(-21.5049 46.2574 25.2346)" fill="black"/>
<rect x="46.2574" y="25.2346" width="10.5093" height="42.0374" transform="rotate(-21.5049 46.2574 25.2346)" fill="black"/>
<rect x="-32.6637" y="-13.8496" width="12.6112" height="63.056" transform="rotate(-21.5049 -32.6637 -13.8496)" fill="white"/>
<rect x="-18.9749" y="-19.2431" width="12.6112" height="63.056" transform="rotate(-21.5049 -18.9749 -19.2431)" fill="white"/>
<rect x="-5.28603" y="-24.6366" width="12.6112" height="63.056" transform="rotate(-21.5049 -5.28603 -24.6366)" fill="white"/>
<rect x="8.40286" y="-30.0301" width="12.6112" height="63.056" transform="rotate(-21.5049 8.40286 -30.0301)" fill="white"/>
<rect x="22.0917" y="-35.4236" width="12.6112" height="63.056" transform="rotate(-21.5049 22.0917 -35.4236)" fill="white"/>
<rect x="35.7805" y="-40.8171" width="12.6112" height="63.056" transform="rotate(-21.5049 35.7805 -40.8171)" fill="white"/>
<rect x="-24.8415" y="-16.9316" width="10.5093" height="42.0374" transform="rotate(-21.5049 -24.8415 -16.9316)" fill="black"/>
<rect x="-24.8415" y="-16.9316" width="10.5093" height="42.0374" transform="rotate(-21.5049 -24.8415 -16.9316)" fill="black"/>
<rect x="-24.8415" y="-16.9316" width="10.5093" height="42.0374" transform="rotate(-21.5049 -24.8415 -16.9316)" fill="black"/>
<rect x="-24.8415" y="-16.9316" width="10.5093" height="42.0374" transform="rotate(-21.5049 -24.8415 -16.9316)" fill="black"/>
<rect x="2.53618" y="-27.7186" width="10.5093" height="42.0374" transform="rotate(-21.5049 2.53618 -27.7186)" fill="black"/>
<rect x="2.53618" y="-27.7186" width="10.5093" height="42.0374" transform="rotate(-21.5049 2.53618 -27.7186)" fill="black"/>
<rect x="2.53618" y="-27.7186" width="10.5093" height="42.0374" transform="rotate(-21.5049 2.53618 -27.7186)" fill="black"/>
<rect x="2.53618" y="-27.7186" width="10.5093" height="42.0374" transform="rotate(-21.5049 2.53618 -27.7186)" fill="black"/>
<rect x="16.225" y="-33.1121" width="10.5093" height="42.0374" transform="rotate(-21.5049 16.225 -33.1121)" fill="black"/>
<rect x="16.225" y="-33.1121" width="10.5093" height="42.0374" transform="rotate(-21.5049 16.225 -33.1121)" fill="black"/>
<rect x="16.225" y="-33.1121" width="10.5093" height="42.0374" transform="rotate(-21.5049 16.225 -33.1121)" fill="black"/>
<rect x="16.225" y="-33.1121" width="10.5093" height="42.0374" transform="rotate(-21.5049 16.225 -33.1121)" fill="black"/>
<rect x="29.9139" y="-38.5056" width="10.5093" height="42.0374" transform="rotate(-21.5049 29.9139 -38.5056)" fill="black"/>
<rect x="29.9139" y="-38.5056" width="10.5093" height="42.0374" transform="rotate(-21.5049 29.9139 -38.5056)" fill="black"/>
<rect x="29.9139" y="-38.5056" width="10.5093" height="42.0374" transform="rotate(-21.5049 29.9139 -38.5056)" fill="black"/>
<rect x="29.9139" y="-38.5056" width="10.5093" height="42.0374" transform="rotate(-21.5049 29.9139 -38.5056)" fill="black"/>
<rect x="49.3268" y="-46.1039" width="12.6112" height="63.056" transform="rotate(-21.5049 49.3268 -46.1039)" fill="white"/>
</g>
<rect x="1" y="1" width="48" height="48" rx="7" stroke="black" stroke-width="2"/>
<defs>
<clipPath id="clip0_2_4">
<rect width="50" height="50" rx="8" fill="white"/>
</clipPath>
</defs>
</svg>
